Coordinates
version=1
nRows=17
nColumns=40
inDegrees=yes

Units are S.I. units (second, meters, Newtons, ...)
Angles are in degrees.

endheader
time	pelvis_tilt	pelvis_list	pelvis_rotation	pelvis_tx	pelvis_ty	pelvis_tz	hip_flexion_r	hip_adduction_r	hip_rotation_r	knee_angle_r	knee_angle_r_beta	ankle_angle_r	subtalar_angle_r	mtp_angle_r	hip_flexion_l	hip_adduction_l	hip_rotation_l	knee_angle_l	knee_angle_l_beta	ankle_angle_l	subtalar_angle_l	mtp_angle_l	lumbar_extension	lumbar_bending	lumbar_rotation	arm_flex_r	arm_add_r	arm_rot_r	elbow_flex_r	pro_sup_r	wrist_flex_r	wrist_dev_r	arm_flex_l	arm_add_l	arm_rot_l	elbow_flex_l	pro_sup_l	wrist_flex_l	wrist_dev_l
     10.16750000	     -5.17995214	     -3.54784144	      4.48352965	      0.99851528	      0.92488532	      0.39477085	      4.14279918	     -3.20485439	    -14.52722903	     34.71542056	     34.71542056	     11.63726342	     -4.75684191	    -12.17581485	     24.66683671	     -2.30847512	     -2.23585507	     25.82644105	     25.82644105	     10.43577192	     -9.64070094	      6.10745522	     -6.18814697	      3.98257679	      4.10828300	     19.38477673	    -14.76716936	      0.70751778	     91.98242665	     45.14974280	      0.00000000	      0.00000000	     -0.09994892	     -7.34107723	     -7.27370363	     37.17924726	     46.16807631	      0.00000000	      0.00000000
     10.17971429	     -5.24218715	     -3.55018302	      4.16947219	      0.99849414	      0.92591224	      0.39338958	      5.91738102	     -3.76021039	    -13.93503484	     38.37062185	     38.37062185	     10.27746598	     -6.36681685	    -12.11229083	     23.93733588	     -2.44757311	     -2.87053207	     25.44511055	     25.44511055	     10.89593384	     -8.89356692	      5.76795343	     -6.21566324	      3.99568279	      4.47931699	     18.02460883	    -14.63927266	      0.59434975	     89.04331780	     45.24067378	      0.00000000	      0.00000000	      0.72238236	     -7.49440402	     -7.27315249	     38.25458494	     46.18197806	      0.00000000	      0.00000000
     10.19192857	     -5.24231907	     -3.74330444	      3.84567076	      0.99843551	      0.92686743	      0.39249576	      7.73754619	     -3.90180636	    -13.13276276	     42.00869858	     42.00869858	      9.05763684	     -8.48883787	    -10.95339354	     23.23471862	     -2.87467495	     -3.62470357	     25.20848436	     25.20848436	     11.36465814	     -7.89452726	      5.03480003	     -6.21292079	      4.15265996	      4.10711237	     17.80429570	    -13.49508427	      0.18155319	     83.39264678	     45.42764624	      0.00000000	      0.00000000	      0.73605854	     -7.96854326	     -6.96613330	     40.50719224	     46.15683259	      0.00000000	      0.00000000
     10.20414286	     -5.37233026	     -3.74436607	      3.49379110	      0.99809323	      0.92751796	      0.39158295	      9.84756005	     -4.34803947	    -12.53261102	     45.78940888	     45.78940888	      7.95421574	    -10.09221202	     -9.85453887	     22.56295046	     -2.98693965	     -4.15960779	     24.75782040	     24.75782040	     11.69838810	     -7.38183950	      4.61476254	     -6.16759192	      4.11665695	      4.28841574	     16.70189504	    -13.40857293	      0.51289128	     79.90975058	     45.51861523	      0.00000000	      0.00000000	      1.29615234	     -8.26027125	     -6.85069627	     42.16073831	     46.16223209	      0.00000000	      0.00000000
     10.21635714	     -5.38721455	     -3.66575434	      3.12968758	      0.99765004	      0.92815416	      0.39087933	     11.96942459	     -4.84512807	    -11.94914015	     49.67539727	     49.67539727	      7.75344846	    -11.04452660	     -6.58055717	     21.77743630	     -3.04517596	     -4.77843948	     24.31939270	     24.31939270	     11.84722363	     -6.89679174	      3.74045452	     -6.24481548	      3.96774298	      3.39302175	     16.85779054	    -12.37874889	      1.22516553	     74.54679726	     45.64410783	      0.00000000	      0.00000000	      0.92232920	     -9.07652158	     -6.47355217	     44.71877674	     46.14709201	      0.00000000	      0.00000000
     10.22857143	     -5.42137266	     -3.68601775	      2.78969857	      0.99703450	      0.92871767	      0.39027243	     14.05671345	     -5.08453521	    -11.32508007	     53.09715163	     53.09715163	      6.88919483	    -12.63466980	     -5.29514192	     21.07363604	     -3.16159177	     -5.21330629	     23.94999332	     23.94999332	     12.15977872	     -6.56548714	      3.33597690	     -6.35546230	      3.94028439	      3.76930767	     15.50844307	    -12.56354698	      1.44386388	     71.44909335	     45.72215295	      0.00000000	      0.00000000	      1.88035595	     -9.30128588	     -6.48027052	     45.87752594	     46.17298508	      0.00000000	      0.00000000
     10.24078571	     -5.46190044	     -3.63381543	      2.45504987	      0.99622650	      0.92920826	      0.38973425	     16.21388365	     -5.37857105	    -10.74428153	     56.39184327	     56.39184327	      6.55795198	    -13.74332909	     -3.09308067	     20.36725840	     -3.19909944	     -5.69271677	     23.53459012	     23.53459012	     12.33712236	     -6.20627214	      2.69439568	     -6.44147893	      3.83518001	      3.60126942	     14.93507863	    -12.15635607	      1.51561157	     66.76789262	     45.85302502	      0.00000000	      0.00000000	      2.46927258	     -9.80086656	     -6.21062737	     47.20824684	     46.17419517	      0.00000000	      0.00000000
     10.25300000	     -5.51823670	     -3.48571935	      2.19305670	      0.99530925	      0.92962636	      0.38907281	     18.31361847	     -5.80828893	    -10.32441246	     59.26695996	     59.26695996	      5.84115931	    -14.78315780	     -2.74881177	     19.67288969	     -3.06555762	     -6.02830277	     23.09497134	     23.09497134	     12.60326392	     -5.99120588	      2.55343981	     -6.60284466	      3.64881021	      3.52989931	     13.30543612	    -12.23665201	      1.75138147	     65.05267518	     45.89065695	      0.00000000	      0.00000000	      3.45937628	    -10.18436372	     -6.31185199	     47.91355130	     46.20249962	      0.00000000	      0.00000000
     10.26521429	     -5.53208952	     -3.58097445	      1.89718454	      0.99423414	      0.93014454	      0.38869688	     20.40842547	     -5.79650654	     -9.79909899	     61.87263887	     61.87263887	      6.03565821	    -15.41106489	     -0.01946858	     18.95264754	     -3.21405215	     -6.33306987	     22.61831151	     22.61831151	     12.63614574	     -5.81782155	      1.66747588	     -6.67265079	      3.73329549	      3.22932993	     13.50399129	    -11.74244900	      1.71741088	     58.08535202	     46.09799556	      0.00000000	      0.00000000	      3.93609766	    -10.74231909	     -5.71039205	     49.34442907	     46.17946500	      0.00000000	      0.00000000
     10.27742857	     -5.59811920	     -3.51958220	      1.65846318	      0.99306589	      0.93049839	      0.38815461	     22.45557075	     -6.00209527	     -9.38859394	     63.98310121	     63.98310121	      5.61496519	    -16.02781880	      0.24628492	     18.29908202	     -3.14282839	     -6.58033261	     22.16563819	     22.16563819	     12.89213339	     -5.69287261	      1.51984739	     -6.81444930	      3.68161384	      3.31883185	     11.81292316	    -12.11184335	      1.90757563	     56.17460277	     46.14028814	      0.00000000	      0.00000000	      4.94216194	    -10.96108974	     -5.85741476	     50.19774615	     46.21397328	      0.00000000	      0.00000000
     10.28964286	     -5.61468912	     -3.56880090	      1.41080330	      0.99178637	      0.93096989	      0.38768655	     24.37431352	     -5.99147001	     -8.96618482	     65.61022258	     65.61022258	      5.36064027	    -16.45980309	      0.71028164	     17.60299576	     -3.18285610	     -6.76563068	     21.70705328	     21.70705328	     13.14346996	     -5.60691869	      1.23564611	     -7.05946025	      3.82269004	      3.67667813	     10.41184120	    -12.57093393	      1.99540121	     52.88616329	     46.23360398	      0.00000000	      0.00000000	      6.09205764	    -11.05910979	     -5.83252711	     51.24220916	     46.23821942	      0.00000000	      0.00000000
     10.30185714	     -5.55222776	     -3.70307221	      1.26877589	      0.99054798	      0.93155704	      0.38743082	     26.11814154	     -5.88355323	     -8.71292651	     66.84103746	     66.84103746	      5.47037959	    -16.48479341	      1.96917726	     16.82090897	     -3.30964651	     -6.83911293	     21.18769615	     21.18769615	     13.01830769	     -5.62185552	      0.37726956	     -7.19633844	      3.89591314	      2.79725913	     10.95413539	    -11.85969170	      1.64185941	     45.62027039	     46.46608416	      0.00000000	      0.00000000	      6.49494153	    -11.87121928	     -5.35497472	     52.29235122	     46.23574008	      0.00000000	      0.00000000
     10.31407143	     -5.51749607	     -3.78785381	      1.09136741	      0.98927706	      0.93207213	      0.38708986	     27.77164721	     -5.78965270	     -8.42252190	     67.54701509	     67.54701509	      5.25161999	    -16.58297996	      2.03881854	     16.06427291	     -3.37022078	     -6.95250310	     20.68985196	     20.68985196	     13.15645491	     -5.58547662	      0.14276545	     -7.48071949	      4.05140638	      2.87966880	      9.45156844	    -12.23123552	      1.53839520	     42.96308194	     46.53530414	      0.00000000	      0.00000000	      7.44134116	    -11.97395585	     -5.62947272	     53.48833950	     46.29541377	      0.00000000	      0.00000000
     10.32628571	     -5.46449379	     -3.83570946	      0.85308464	      0.98809486	      0.93256083	      0.38692988	     29.31531181	     -5.66314210	     -8.06530572	     67.82272892	     67.82272892	      5.00966024	    -16.54796080	      1.95465068	     15.20273503	     -3.38014601	     -7.04245726	     20.04812367	     20.04812367	     13.16181849	     -5.70338461	     -0.49762654	     -7.68181713	      4.12003454	      2.56593996	      9.13821265	    -12.10157936	      0.80014523	     37.89410513	     46.70164555	      0.00000000	      0.00000000	      7.99094745	    -12.36596858	     -5.75970772	     54.84977523	     46.36228264	      0.00000000	      0.00000000
     10.33850000	     -5.38851796	     -3.84103934	      0.58540526	      0.98708404	      0.93311013	      0.38680779	     30.69292627	     -5.53214831	     -7.68445232	     67.64194983	     67.64194983	      4.79590246	    -16.44649801	      1.91771951	     14.26821160	     -3.35451906	     -7.24016555	     19.37045858	     19.37045858	     13.38256368	     -5.61484159	     -0.51820360	     -7.97514546	      4.18824642	      2.85080066	      7.34307122	    -12.66210165	      0.68379790	     36.17917594	     46.75041548	      0.00000000	      0.00000000	      8.97015789	    -12.37212293	     -6.01699032	     55.92444508	     46.41157263	      0.00000000	      0.00000000
     10.35071429	     -5.32138951	     -3.84815253	      0.35010187	      0.98620568	      0.93358656	      0.38672853	     31.91467542	     -5.42017096	     -7.41822800	     67.02680079	     67.02680079	      4.63532485	    -16.22390770	      1.92259744	     13.39136593	     -3.32483057	     -7.39284312	     18.79248896	     18.79248896	     13.63632865	     -5.55904778	     -0.54340727	     -8.20465377	      4.31143918	      2.68617988	      5.66846791	    -13.05257896	      0.58767014	     34.84708225	     46.79097463	      0.00000000	      0.00000000	      9.69161132	    -12.73622671	     -6.24806908	     56.65737413	     46.44844588	      0.00000000	      0.00000000
     10.36292857	     -5.11486102	     -3.63277506	     -0.08980014	      0.98575708	      0.93440235	      0.38675622	     32.85623026	     -5.39616907	     -6.87970328	     66.01012469	     66.01012469	      4.51398755	    -16.03278855	      1.86979609	     11.98621649	     -3.01958739	     -7.73762260	     17.60158204	     17.60158204	     13.68384486	     -5.48184545	     -0.44653807	     -8.60059563	      4.16604764	      3.34547309	      3.97048713	    -13.54372703	      0.36383902	     32.53978905	     46.87590850	      0.00000000	      0.00000000	     10.59250355	    -12.47615015	     -6.43384661	     58.22698662	     46.49632796	      0.00000000	      0.00000000
